<mxfile host="app.diagrams.net" modified="2024-04-26T11:56:13.269Z" agent="Mozilla/5.0 (Windows NT 10.0; Win64; x64) AppleWebKit/537.36 (KHTML, like Gecko) Chrome/122.0.0.0 YaBrowser/24.4.0.0 Safari/537.36" etag="WbG1YOnCUwjirahD9_Cu" version="23.1.7" type="device">
  <diagram name="Страница — 1" id="Q_8gOGb3hFl9b_hNnAyF">
    <mxGraphModel dx="1593" dy="879" grid="1" gridSize="10" guides="1" tooltips="1" connect="1" arrows="1" fold="1" page="1" pageScale="1" pageWidth="827" pageHeight="1169" math="0" shadow="0">
      <root>
        <mxCell id="0" />
        <mxCell id="1" parent="0" />
        <mxCell id="8r1NUejxLNzAJkBr8jmw-3" style="edgeStyle=orthogonalEdgeStyle;rounded=0;orthogonalLoop=1;jettySize=auto;html=1;" edge="1" parent="1" source="8r1NUejxLNzAJkBr8jmw-1" target="8r1NUejxLNzAJkBr8jmw-2">
          <mxGeometry relative="1" as="geometry" />
        </mxCell>
        <mxCell id="8r1NUejxLNzAJkBr8jmw-1" value="Начало" style="rounded=1;whiteSpace=wrap;html=1;" vertex="1" parent="1">
          <mxGeometry x="330" y="210" width="120" height="30" as="geometry" />
        </mxCell>
        <mxCell id="8r1NUejxLNzAJkBr8jmw-15" style="edgeStyle=orthogonalEdgeStyle;rounded=0;orthogonalLoop=1;jettySize=auto;html=1;" edge="1" parent="1" source="8r1NUejxLNzAJkBr8jmw-2" target="8r1NUejxLNzAJkBr8jmw-17">
          <mxGeometry relative="1" as="geometry">
            <mxPoint x="390" y="400" as="targetPoint" />
          </mxGeometry>
        </mxCell>
        <mxCell id="8r1NUejxLNzAJkBr8jmw-2" value="Основная страница" style="rounded=0;whiteSpace=wrap;html=1;" vertex="1" parent="1">
          <mxGeometry x="330" y="300" width="120" height="60" as="geometry" />
        </mxCell>
        <mxCell id="8r1NUejxLNzAJkBr8jmw-16" style="edgeStyle=orthogonalEdgeStyle;rounded=0;orthogonalLoop=1;jettySize=auto;html=1;" edge="1" parent="1" source="8r1NUejxLNzAJkBr8jmw-17">
          <mxGeometry relative="1" as="geometry">
            <mxPoint x="390" y="480" as="sourcePoint" />
            <mxPoint x="390" y="510" as="targetPoint" />
          </mxGeometry>
        </mxCell>
        <mxCell id="8r1NUejxLNzAJkBr8jmw-19" style="edgeStyle=orthogonalEdgeStyle;rounded=0;orthogonalLoop=1;jettySize=auto;html=1;" edge="1" parent="1">
          <mxGeometry relative="1" as="geometry">
            <mxPoint x="390" y="570" as="sourcePoint" />
            <mxPoint x="390" y="610" as="targetPoint" />
          </mxGeometry>
        </mxCell>
        <mxCell id="8r1NUejxLNzAJkBr8jmw-17" value="Нажатие кнопки покупки" style="rounded=0;whiteSpace=wrap;html=1;" vertex="1" parent="1">
          <mxGeometry x="330" y="410" width="120" height="60" as="geometry" />
        </mxCell>
        <mxCell id="8r1NUejxLNzAJkBr8jmw-20" value="Конец" style="rounded=1;whiteSpace=wrap;html=1;" vertex="1" parent="1">
          <mxGeometry x="320" y="960" width="120" height="40" as="geometry" />
        </mxCell>
        <mxCell id="8r1NUejxLNzAJkBr8jmw-28" style="edgeStyle=orthogonalEdgeStyle;rounded=0;orthogonalLoop=1;jettySize=auto;html=1;" edge="1" parent="1" source="8r1NUejxLNzAJkBr8jmw-25" target="8r1NUejxLNzAJkBr8jmw-20">
          <mxGeometry relative="1" as="geometry" />
        </mxCell>
        <mxCell id="8r1NUejxLNzAJkBr8jmw-25" value="Обработка заявки" style="shape=process;whiteSpace=wrap;html=1;backgroundOutline=1;" vertex="1" parent="1">
          <mxGeometry x="320" y="820" width="120" height="60" as="geometry" />
        </mxCell>
        <mxCell id="8r1NUejxLNzAJkBr8jmw-26" value="Ввод необходимых данных" style="shape=parallelogram;perimeter=parallelogramPerimeter;whiteSpace=wrap;html=1;fixedSize=1;" vertex="1" parent="1">
          <mxGeometry x="330" y="610" width="140" height="60" as="geometry" />
        </mxCell>
        <mxCell id="8r1NUejxLNzAJkBr8jmw-29" value="Выбор подходящей даты" style="shape=parallelogram;perimeter=parallelogramPerimeter;whiteSpace=wrap;html=1;fixedSize=1;" vertex="1" parent="1">
          <mxGeometry x="330" y="510" width="140" height="60" as="geometry" />
        </mxCell>
        <mxCell id="8r1NUejxLNzAJkBr8jmw-31" style="edgeStyle=orthogonalEdgeStyle;rounded=0;orthogonalLoop=1;jettySize=auto;html=1;entryX=0;entryY=0.5;entryDx=0;entryDy=0;" edge="1" parent="1" source="8r1NUejxLNzAJkBr8jmw-30" target="8r1NUejxLNzAJkBr8jmw-26">
          <mxGeometry relative="1" as="geometry">
            <mxPoint x="160" y="640" as="targetPoint" />
            <Array as="points">
              <mxPoint x="250" y="750" />
              <mxPoint x="250" y="640" />
            </Array>
          </mxGeometry>
        </mxCell>
        <mxCell id="8r1NUejxLNzAJkBr8jmw-32" value="нет" style="edgeLabel;html=1;align=center;verticalAlign=middle;resizable=0;points=[];" vertex="1" connectable="0" parent="8r1NUejxLNzAJkBr8jmw-31">
          <mxGeometry x="-0.0403" y="2" relative="1" as="geometry">
            <mxPoint as="offset" />
          </mxGeometry>
        </mxCell>
        <mxCell id="8r1NUejxLNzAJkBr8jmw-33" style="edgeStyle=orthogonalEdgeStyle;rounded=0;orthogonalLoop=1;jettySize=auto;html=1;entryX=1;entryY=0.5;entryDx=0;entryDy=0;" edge="1" parent="1" source="8r1NUejxLNzAJkBr8jmw-30" target="8r1NUejxLNzAJkBr8jmw-25">
          <mxGeometry relative="1" as="geometry">
            <mxPoint x="510" y="870" as="targetPoint" />
            <Array as="points">
              <mxPoint x="500" y="740" />
              <mxPoint x="500" y="850" />
            </Array>
          </mxGeometry>
        </mxCell>
        <mxCell id="8r1NUejxLNzAJkBr8jmw-34" value="да" style="edgeLabel;html=1;align=center;verticalAlign=middle;resizable=0;points=[];" vertex="1" connectable="0" parent="8r1NUejxLNzAJkBr8jmw-33">
          <mxGeometry x="-0.1453" relative="1" as="geometry">
            <mxPoint as="offset" />
          </mxGeometry>
        </mxCell>
        <mxCell id="8r1NUejxLNzAJkBr8jmw-30" value="Введенные данные оказались верными?" style="rhombus;whiteSpace=wrap;html=1;" vertex="1" parent="1">
          <mxGeometry x="280" y="690" width="200" height="100" as="geometry" />
        </mxCell>
      </root>
    </mxGraphModel>
  </diagram>
</mxfile>
